<?xml version="1.0" standalone="no"?>
<!DOCTYPE svg PUBLIC "-//W3C//DTD SVG 20010904//EN"
 "http://www.w3.org/TR/2001/REC-SVG-20010904/DTD/svg10.dtd">
<svg version="1.0" xmlns="http://www.w3.org/2000/svg"
 width="150.000000pt" height="150.000000pt" viewBox="0 0 150.000000 150.000000"
 preserveAspectRatio="xMidYMid meet">

<g transform="translate(0.000000,150.000000) scale(0.100000,-0.100000)"
fill="#ff0072" stroke="none">
<path d="M638 1430 c-104 -18 -196 -56 -290 -123 l-58 -40 37 -41 c20 -22 76
-82 124 -133 l88 -91 58 31 c78 42 191 50 273 18 l55 -21 21 23 c73 74 214
243 211 252 -2 5 -46 31 -98 57 -139 69 -278 92 -421 68z"/>
<path d="M1205 985 c-82 -52 -150 -98 -150 -102 0 -4 6 -32 14 -62 44 -175
-70 -351 -256 -392 l-53 -12 0 -57 c0 -31 3 -112 7 -178 l6 -122 32 0 c55 0
187 38 265 77 112 56 243 189 298 303 81 169 94 358 37 527 -15 46 -33 89 -39
97 -9 13 -35 0 -161 -79z"/>
</g>
<g transform="translate(0.000000,150.000000) scale(0.100000,-0.100000)"
fill="#fafafa" stroke="none">  
<path d="M66 807 c-13 -128 27 -300 95 -412 18 -30 55 -79 83 -110 l51 -57
103 151 102 151 -29 52 c-33 60 -55 153 -45 192 3 14 4 26 2 26 -3 0 -83 16
-178 35 -95 19 -174 35 -175 35 -1 0 -5 -28 -9 -63z"/>
</g>
</svg>
